<mxfile host="app.diagrams.net" agent="Mozilla/5.0 (Windows NT 10.0; Win64; x64) AppleWebKit/537.36 (KHTML, like Gecko) Chrome/134.0.0.0 Safari/537.36" version="26.1.3">
  <diagram name="Page-1" id="BMWo-F2lzEzbfZ2G1kNt">
    <mxGraphModel dx="2074" dy="1132" grid="1" gridSize="10" guides="1" tooltips="1" connect="1" arrows="1" fold="1" page="1" pageScale="1" pageWidth="1169" pageHeight="827" math="0" shadow="0">
      <root>
        <mxCell id="0" />
        <mxCell id="1" parent="0" />
        <mxCell id="TRcrAqTRBC0oMRkJ7zuD-1" value="Client" style="shape=umlActor;verticalLabelPosition=bottom;verticalAlign=top;html=1;outlineConnect=0;" vertex="1" parent="1">
          <mxGeometry y="414" width="30" height="60" as="geometry" />
        </mxCell>
        <mxCell id="TRcrAqTRBC0oMRkJ7zuD-2" value="" style="swimlane;startSize=0;dashed=1;fillColor=#f5f5f5;gradientColor=#b3b3b3;strokeColor=#666666;" vertex="1" parent="1">
          <mxGeometry x="150" y="210" width="800" height="460" as="geometry" />
        </mxCell>
        <mxCell id="TRcrAqTRBC0oMRkJ7zuD-3" value="patient-service&lt;br&gt;(micro-service)" style="rounded=0;whiteSpace=wrap;html=1;fillColor=#ffcc99;strokeColor=#36393d;" vertex="1" parent="TRcrAqTRBC0oMRkJ7zuD-2">
          <mxGeometry x="50" y="196" width="170" height="104" as="geometry" />
        </mxCell>
        <mxCell id="TRcrAqTRBC0oMRkJ7zuD-4" value="billing-service&lt;br&gt;(micro-service)" style="rounded=0;whiteSpace=wrap;html=1;fillColor=#ffcc99;strokeColor=#36393d;" vertex="1" parent="TRcrAqTRBC0oMRkJ7zuD-2">
          <mxGeometry x="460" y="80" width="120" height="50" as="geometry" />
        </mxCell>
        <mxCell id="TRcrAqTRBC0oMRkJ7zuD-5" value="gRPC&amp;nbsp;&lt;div&gt;Client&lt;/div&gt;" style="rounded=0;whiteSpace=wrap;html=1;fillColor=#d5e8d4;strokeColor=#82b366;" vertex="1" parent="TRcrAqTRBC0oMRkJ7zuD-2">
          <mxGeometry x="190" y="204" width="70" height="40" as="geometry" />
        </mxCell>
        <mxCell id="TRcrAqTRBC0oMRkJ7zuD-6" value="gRPC Request&lt;br&gt;Protobuf" style="rounded=0;whiteSpace=wrap;html=1;fillColor=#d5e8d4;strokeColor=#82b366;" vertex="1" parent="TRcrAqTRBC0oMRkJ7zuD-2">
          <mxGeometry x="200" y="80" width="110" height="50" as="geometry" />
        </mxCell>
        <mxCell id="TRcrAqTRBC0oMRkJ7zuD-7" value="Kafka&lt;br&gt;Producer" style="rounded=0;whiteSpace=wrap;html=1;fillColor=#1ba1e2;fontColor=#ffffff;strokeColor=#006EAF;" vertex="1" parent="TRcrAqTRBC0oMRkJ7zuD-2">
          <mxGeometry x="190" y="252" width="70" height="40" as="geometry" />
        </mxCell>
        <mxCell id="TRcrAqTRBC0oMRkJ7zuD-9" value="" style="endArrow=classic;html=1;rounded=0;entryX=0.75;entryY=1;entryDx=0;entryDy=0;exitX=1;exitY=0.5;exitDx=0;exitDy=0;dashed=1;" edge="1" parent="TRcrAqTRBC0oMRkJ7zuD-2" source="TRcrAqTRBC0oMRkJ7zuD-5" target="TRcrAqTRBC0oMRkJ7zuD-6">
          <mxGeometry width="50" height="50" relative="1" as="geometry">
            <mxPoint x="350" y="390" as="sourcePoint" />
            <mxPoint x="400" y="340" as="targetPoint" />
            <Array as="points">
              <mxPoint x="283" y="224" />
            </Array>
          </mxGeometry>
        </mxCell>
        <mxCell id="TRcrAqTRBC0oMRkJ7zuD-10" value="" style="endArrow=classic;html=1;rounded=0;exitX=1;exitY=0.5;exitDx=0;exitDy=0;entryX=0;entryY=0.5;entryDx=0;entryDy=0;dashed=1;" edge="1" parent="TRcrAqTRBC0oMRkJ7zuD-2" source="TRcrAqTRBC0oMRkJ7zuD-6" target="TRcrAqTRBC0oMRkJ7zuD-4">
          <mxGeometry width="50" height="50" relative="1" as="geometry">
            <mxPoint x="350" y="390" as="sourcePoint" />
            <mxPoint x="400" y="340" as="targetPoint" />
          </mxGeometry>
        </mxCell>
        <mxCell id="TRcrAqTRBC0oMRkJ7zuD-11" value="Kafka - Topic (patient)" style="rounded=0;whiteSpace=wrap;html=1;fillColor=#1ba1e2;fontColor=#ffffff;strokeColor=#006EAF;" vertex="1" parent="TRcrAqTRBC0oMRkJ7zuD-2">
          <mxGeometry x="340" y="240" width="290" height="50" as="geometry" />
        </mxCell>
        <mxCell id="TRcrAqTRBC0oMRkJ7zuD-13" value="" style="endArrow=none;dashed=1;html=1;rounded=0;entryX=0;entryY=0.64;entryDx=0;entryDy=0;exitX=1;exitY=0.5;exitDx=0;exitDy=0;entryPerimeter=0;" edge="1" parent="TRcrAqTRBC0oMRkJ7zuD-2" source="TRcrAqTRBC0oMRkJ7zuD-7" target="TRcrAqTRBC0oMRkJ7zuD-11">
          <mxGeometry width="50" height="50" relative="1" as="geometry">
            <mxPoint x="260" y="275" as="sourcePoint" />
            <mxPoint x="400" y="340" as="targetPoint" />
          </mxGeometry>
        </mxCell>
        <mxCell id="TRcrAqTRBC0oMRkJ7zuD-14" value="analytics-service&lt;br&gt;(micro-service)" style="rounded=0;whiteSpace=wrap;html=1;fillColor=#ffcc99;strokeColor=#36393d;" vertex="1" parent="TRcrAqTRBC0oMRkJ7zuD-2">
          <mxGeometry x="340" y="380" width="120" height="60" as="geometry" />
        </mxCell>
        <mxCell id="TRcrAqTRBC0oMRkJ7zuD-15" value="notification-service&lt;br&gt;(micro-service)" style="rounded=0;whiteSpace=wrap;html=1;fillColor=#ffcc99;strokeColor=#36393d;" vertex="1" parent="TRcrAqTRBC0oMRkJ7zuD-2">
          <mxGeometry x="510" y="380" width="120" height="60" as="geometry" />
        </mxCell>
        <mxCell id="TRcrAqTRBC0oMRkJ7zuD-16" value="Kafka&lt;br&gt;Consumer" style="rounded=0;whiteSpace=wrap;html=1;fillColor=#1ba1e2;fontColor=#ffffff;strokeColor=#006EAF;" vertex="1" parent="TRcrAqTRBC0oMRkJ7zuD-2">
          <mxGeometry x="365" y="350" width="70" height="40" as="geometry" />
        </mxCell>
        <mxCell id="TRcrAqTRBC0oMRkJ7zuD-17" value="Kafka&lt;br&gt;Consumer" style="rounded=0;whiteSpace=wrap;html=1;fillColor=#1ba1e2;fontColor=#ffffff;strokeColor=#006EAF;" vertex="1" parent="TRcrAqTRBC0oMRkJ7zuD-2">
          <mxGeometry x="535" y="350" width="70" height="40" as="geometry" />
        </mxCell>
        <mxCell id="TRcrAqTRBC0oMRkJ7zuD-18" value="" style="endArrow=none;dashed=1;html=1;rounded=0;exitX=0.5;exitY=0;exitDx=0;exitDy=0;" edge="1" parent="TRcrAqTRBC0oMRkJ7zuD-2" source="TRcrAqTRBC0oMRkJ7zuD-16">
          <mxGeometry width="50" height="50" relative="1" as="geometry">
            <mxPoint x="350" y="390" as="sourcePoint" />
            <mxPoint x="400" y="290" as="targetPoint" />
          </mxGeometry>
        </mxCell>
        <mxCell id="TRcrAqTRBC0oMRkJ7zuD-19" value="" style="endArrow=none;dashed=1;html=1;rounded=0;exitX=0.5;exitY=0;exitDx=0;exitDy=0;" edge="1" parent="TRcrAqTRBC0oMRkJ7zuD-2" source="TRcrAqTRBC0oMRkJ7zuD-17">
          <mxGeometry width="50" height="50" relative="1" as="geometry">
            <mxPoint x="410" y="360" as="sourcePoint" />
            <mxPoint x="570" y="290" as="targetPoint" />
          </mxGeometry>
        </mxCell>
        <mxCell id="TRcrAqTRBC0oMRkJ7zuD-20" value="" style="shape=note;whiteSpace=wrap;html=1;backgroundOutline=1;darkOpacity=0.05;" vertex="1" parent="TRcrAqTRBC0oMRkJ7zuD-2">
          <mxGeometry x="80" y="60" width="60" height="80" as="geometry" />
        </mxCell>
        <mxCell id="TRcrAqTRBC0oMRkJ7zuD-21" value="billing_service.porto" style="text;html=1;align=center;verticalAlign=middle;whiteSpace=wrap;rounded=0;" vertex="1" parent="TRcrAqTRBC0oMRkJ7zuD-2">
          <mxGeometry x="60" y="140" width="115" height="30" as="geometry" />
        </mxCell>
        <mxCell id="TRcrAqTRBC0oMRkJ7zuD-22" value="REST Request&lt;br&gt;(JSON)" style="rounded=0;whiteSpace=wrap;html=1;fillColor=#d5e8d4;gradientColor=#97d077;strokeColor=#82b366;" vertex="1" parent="1">
          <mxGeometry x="70" y="424" width="90" height="50" as="geometry" />
        </mxCell>
        <mxCell id="TRcrAqTRBC0oMRkJ7zuD-26" value="" style="endArrow=classic;html=1;rounded=0;exitX=1;exitY=0.5;exitDx=0;exitDy=0;dashed=1;" edge="1" parent="1" source="TRcrAqTRBC0oMRkJ7zuD-22">
          <mxGeometry width="50" height="50" relative="1" as="geometry">
            <mxPoint x="560" y="600" as="sourcePoint" />
            <mxPoint x="199" y="450" as="targetPoint" />
          </mxGeometry>
        </mxCell>
        <mxCell id="TRcrAqTRBC0oMRkJ7zuD-27" value="" style="endArrow=none;dashed=1;html=1;rounded=0;entryX=0;entryY=0.5;entryDx=0;entryDy=0;" edge="1" parent="1" target="TRcrAqTRBC0oMRkJ7zuD-22">
          <mxGeometry width="50" height="50" relative="1" as="geometry">
            <mxPoint x="40" y="450" as="sourcePoint" />
            <mxPoint x="610" y="550" as="targetPoint" />
          </mxGeometry>
        </mxCell>
      </root>
    </mxGraphModel>
  </diagram>
</mxfile>
